<svg xmlns="http://www.w3.org/2000/svg" xmlns:xlink="http://www.w3.org/1999/xlink" xmlns:lucid="lucid" width="1523" height="1223"><g transform="translate(1581.5 -98.5)" lucid:page-tab-id="0_0"><path d="M-1696 0H64v1360h-1760z" fill="#fff"/><path d="M-1580 106a6 6 0 0 1 6-6H-66a6 6 0 0 1 6 6v1208a6 6 0 0 1-6 6h-1508a6 6 0 0 1-6-6z" stroke="#5e5e5e" stroke-width="3" fill="#f2f3f5"/><use xlink:href="#a" transform="matrix(1,0,0,1,-1575,105) translate(0 17.77777777777778)"/><use xlink:href="#b" transform="matrix(1,0,0,1,-1575,105) translate(122.09876543209876 17.77777777777778)"/><path d="M-1540 546a6 6 0 0 1 6-6h1428a6 6 0 0 1 6 6v728a6 6 0 0 1-6 6h-1428a6 6 0 0 1-6-6z" stroke="#5e5e5e" stroke-width="3" fill="#333"/><use xlink:href="#c" transform="matrix(1,0,0,1,-1528,552.0000000000001) translate(0 17.77777777777778)"/><use xlink:href="#d" transform="matrix(1,0,0,1,-1528,552.0000000000001) translate(146.60493827160494 17.77777777777778)"/><use xlink:href="#e" transform="matrix(1,0,0,1,-1528,552.0000000000001) translate(203.14814814814815 17.77777777777778)"/><use xlink:href="#f" transform="matrix(1,0,0,1,-1528,552.0000000000001) translate(263.08641975308643 17.77777777777778)"/><use xlink:href="#g" transform="matrix(1,0,0,1,-1528,552.0000000000001) translate(287.77777777777777 17.77777777777778)"/><use xlink:href="#h" transform="matrix(1,0,0,1,-1528,552.0000000000001) translate(362.96296296296293 17.77777777777778)"/><path d="M-1362 376c-43.08 0-78-25.07-78-56 0-24.74 21.12-45.6 53.9-53.26C-1388 194-1258 180-1206 208c26-42 156-28 156 14 78-14 156 42 104 112 52 56 0 126-104 98-26 36.4-130 36.4-156 0-52 28-156 14-156-56z" stroke="#5e5e5e" stroke-width="3" fill="#fff"/><use xlink:href="#i" transform="matrix(1,0,0,1,-1435,185) translate(184.6851851851852 140.12152777777777)"/><use xlink:href="#j" transform="matrix(1,0,0,1,-1435,185) translate(229.0679012345679 140.12152777777777)"/><path d="M-1520 586a6 6 0 0 1 6-6h1388a6 6 0 0 1 6 6v668a6 6 0 0 1-6 6h-1388a6 6 0 0 1-6-6z" stroke="#5e5e5e" stroke-width="3" fill="#999"/><use xlink:href="#k" transform="matrix(1,0,0,1,-1508,592) translate(0 17.77777777777778)"/><use xlink:href="#l" transform="matrix(1,0,0,1,-1508,592) translate(72.59259259259258 17.77777777777778)"/><path d="M-1500 646a6 6 0 0 1 6-6h488a6 6 0 0 1 6 6v308a6 6 0 0 1-6 6h-488a6 6 0 0 1-6-6z" stroke="#5e5e5e" stroke-width="3" fill="#e5e5e5"/><use xlink:href="#m" transform="matrix(1,0,0,1,-1488,652) translate(0 17.77777777777778)"/><use xlink:href="#n" transform="matrix(1,0,0,1,-1488,652) translate(137.962962962963 17.77777777777778)"/><path d="M-1480 706a6 6 0 0 1 6-6h308a6 6 0 0 1 6 6v108a6 6 0 0 1-6 6h-308a6 6 0 0 1-6-6z" stroke="#5e5e5e" stroke-width="3" fill="#fff"/><use xlink:href="#o" transform="matrix(1,0,0,1,-1475,705) translate(0 17.77777777777778)"/><use xlink:href="#p" transform="matrix(1,0,0,1,-1475,705) translate(82.5925925925926 17.77777777777778)"/><use xlink:href="#q" transform="matrix(1,0,0,1,-1475,705) translate(7.222222222222221 44.44444444444444)"/><use xlink:href="#r" transform="matrix(1,0,0,1,-1475,705) translate(22.22222222222222 44.44444444444444)"/><use xlink:href="#s" transform="matrix(1,0,0,1,-1475,705) translate(76.41975308641976 44.44444444444444)"/><use xlink:href="#t" transform="matrix(1,0,0,1,-1475,705) translate(126.9135802469136 44.44444444444444)"/><use xlink:href="#u" transform="matrix(1,0,0,1,-1475,705) translate(211.97530864197532 44.44444444444444)"/><use xlink:href="#v" transform="matrix(1,0,0,1,-1475,705) translate(22.22222222222222 71.11111111111111)"/><use xlink:href="#q" transform="matrix(1,0,0,1,-1475,705) translate(7.222222222222221 97.77777777777777)"/><use xlink:href="#w" transform="matrix(1,0,0,1,-1475,705) translate(22.22222222222222 97.77777777777777)"/><use xlink:href="#x" transform="matrix(1,0,0,1,-1475,705) translate(92.53086419753086 97.77777777777777)"/><use xlink:href="#y" transform="matrix(1,0,0,1,-1475,705) translate(143.08641975308643 97.77777777777777)"/><use xlink:href="#z" transform="matrix(1,0,0,1,-1475,705) translate(166.4814814814815 97.77777777777777)"/><path d="M-1480 846a6 6 0 0 1 6-6h308a6 6 0 0 1 6 6v88a6 6 0 0 1-6 6h-308a6 6 0 0 1-6-6z" stroke="#5e5e5e" stroke-width="3" fill="#fff"/><use xlink:href="#A" transform="matrix(1,0,0,1,-1475,845.0000000000001) translate(0 17.77777777777778)"/><use xlink:href="#p" transform="matrix(1,0,0,1,-1475,845.0000000000001) translate(117.09876543209876 17.77777777777778)"/><use xlink:href="#q" transform="matrix(1,0,0,1,-1475,845.0000000000001) translate(7.222222222222221 44.44444444444444)"/><use xlink:href="#B" transform="matrix(1,0,0,1,-1475,845.0000000000001) translate(22.22222222222222 44.44444444444444)"/><use xlink:href="#C" transform="matrix(1,0,0,1,-1475,845.0000000000001) translate(97.46913580246911 44.44444444444444)"/><use xlink:href="#D" transform="matrix(1,0,0,1,-1475,845.0000000000001) translate(239.25925925925924 44.44444444444444)"/><use xlink:href="#E" transform="matrix(1,0,0,1,-1475,845.0000000000001) translate(22.22222222222222 71.11111111111111)"/><use xlink:href="#F" transform="matrix(1,0,0,1,-1475,845.0000000000001) translate(51.79012345679012 71.11111111111111)"/><use xlink:href="#G" transform="matrix(1,0,0,1,-1475,845.0000000000001) translate(136.85185185185185 71.11111111111111)"/><use xlink:href="#H" transform="matrix(1,0,0,1,-1475,845.0000000000001) translate(181.23456790123458 71.11111111111111)"/><path d="M-1239.77 680V506a6 6 0 0 1 6-6h65.1a6 6 0 0 0 6-6v-35.82" stroke="#5e5e5e" stroke-width="2" fill="none"/><path d="M-1239.77 695.26l-4.63-14.26h9.27z" stroke="#5e5e5e" stroke-width="2" fill="#5e5e5e"/><path d="M-1163.46 457.02l1.76.36v.82h-1.95v-1.23z" stroke="#5e5e5e" stroke-width=".05" fill="#5e5e5e"/><path d="M-602.16 294.96l-52.44-52.8c-3-2.88-7.68-2.88-10.44 0l-11.52 11.28 13.68 13.68c.84-.36 2.04-.6 3.24-.6 5.04 0 9.12 4.08 9.12 9.12 0 1.2-.24 2.4-.6 3.36l13.32 13.32c.84-.36 2.16-.6 3.24-.6 5.04 0 9.24 4.08 9.24 9.12 0 5.04-4.2 9.24-9.24 9.24s-9.12-4.2-9.12-9.24c0-1.2.24-2.4.6-3.24l-12.48-12.48v32.64c3 1.44 5.04 4.68 5.04 8.04 0 5.04-4.08 9.12-9.12 9.12-5.04 0-9.24-4.08-9.24-9.12 0-3.96 2.4-7.2 6-8.64v-33.24c-3.6-1.08-6-4.68-6-8.52 0-1.2.36-2.4.6-3.24l-13.56-13.68-35.88 36.48c-3 2.88-3 7.68 0 10.32l52.44 52.44c3 3 7.68 3 10.32 0l52.44-52.44c3.36-2.88 3.36-7.68.36-10.32z" stroke="#000" stroke-opacity="0" fill="#333"/><use xlink:href="#I" transform="matrix(1,0,0,1,-749.9999999999999,369) translate(36.599999999999994 14.4)"/><use xlink:href="#J" transform="matrix(1,0,0,1,-749.9999999999999,369) translate(64.55 14.4)"/><path d="M-920.47 340h85a6 6 0 0 0 6-6v-28a6 6 0 0 1 6-6h102.5" stroke="#5e5e5e" stroke-width="2" fill="none"/><path d="M-935.73 340l14.26-4.63v9.26z" stroke="#5e5e5e" stroke-width="2" fill="#5e5e5e"/><path d="M-719.97 300.06l.1.92h-1.1v-1.96h1.16z" stroke="#5e5e5e" stroke-width=".05" fill="#5e5e5e"/><path d="M-1032 780c6.63 0 12 22.4 12 50s-5.37 50-12 50h-96c-6.63 0-12-22.4-12-50s5.37-50 12-50z" stroke="#5e5e5e" stroke-width="3" fill="#fff"/><path d="M-1032 880c-6.63 0-12-22.4-12-50s5.37-50 12-50" stroke="#5e5e5e" stroke-width="3" fill="none"/><use xlink:href="#K" transform="matrix(1,0,0,1,-1135,785) translate(28.21604938271605 36.111111111111114)"/><use xlink:href="#L" transform="matrix(1,0,0,1,-1135,785) translate(-1.3209876543209944 62.77777777777778)"/><path d="M-1140 890h54a6 6 0 0 0 6-6v-1.5" stroke="#5e5e5e" stroke-width="2" fill="none"/><path d="M-1155.26 890l14.26-4.63v9.26z" stroke="#5e5e5e" stroke-width="2" fill="#5e5e5e"/><path d="M-1079.03 882.53h-1.94v-1.03h1.94z" stroke="#5e5e5e" stroke-width=".05" fill="#5e5e5e"/><path d="M-1080 760v-19.6a6 6 0 0 0-6-6h-71.5" stroke="#5e5e5e" stroke-width="2" fill="none"/><path d="M-1080 775.26l-4.63-14.26h9.27z" stroke="#5e5e5e" stroke-width="2" fill="#5e5e5e"/><path d="M-1157.47 735.4h-1.03v-1.97h1.03z" stroke="#5e5e5e" stroke-width=".05" fill="#5e5e5e"/><path d="M-1160 940c0 22.1-17.9 40-40 40s-40-17.9-40-40 17.9-40 40-40 40 17.9 40 40z" stroke="#5e5e5e" stroke-width="3" fill="#fff"/><use xlink:href="#M" transform="matrix(1,0,0,1,-1235,905) translate(10.308641975308642 39.65277777777778)"/><path d="M-1500 1062.33a6 6 0 0 1 6-6h488a6 6 0 0 1 6 6v108a6 6 0 0 1-6 6h-488a6 6 0 0 1-6-6z" stroke="#5e5e5e" stroke-width="3" fill="#e5e5e5"/><use xlink:href="#m" transform="matrix(1,0,0,1,-1488,1068.3333333333335) translate(0 17.77777777777778)"/><use xlink:href="#N" transform="matrix(1,0,0,1,-1488,1068.3333333333335) translate(137.962962962963 17.77777777777778)"/><path d="M-1080 1060c0 22.1-17.9 40-40 40s-40-17.9-40-40 17.9-40 40-40 40 17.9 40 40z" stroke="#5e5e5e" stroke-width="3" fill="#fff"/><use xlink:href="#M" transform="matrix(1,0,0,1,-1155,1025) translate(10.308641975308642 39.65277777777778)"/><path d="M-960 1116.33c0 22.1-17.9 40-40 40s-40-17.9-40-40 17.9-40 40-40 40 17.9 40 40z" stroke="#5e5e5e" stroke-width="3" fill="#fff"/><use xlink:href="#M" transform="matrix(1,0,0,1,-1035,1081.3333333333335) translate(10.308641975308642 39.65277777777778)"/><path d="M-1120 1000v-4a6 6 0 0 0-6-6h-68a6 6 0 0 1-6-6v-1.5" stroke="#5e5e5e" stroke-width="2" fill="none"/><path d="M-1120 1015.26l-4.63-14.26h9.27z" stroke="#5e5e5e" stroke-width="2" fill="#5e5e5e"/><path d="M-1200.02 981.5l1-.03v1.06h-1.95v-1.1z" stroke="#5e5e5e" stroke-width=".05" fill="#5e5e5e"/><path d="M-880 606a6 6 0 0 1 6-6h728a6 6 0 0 1 6 6v184a6 6 0 0 1-6 6h-728a6 6 0 0 1-6-6z" stroke="#5e5e5e" stroke-width="3" fill="#e5e5e5"/><use xlink:href="#O" transform="matrix(1,0,0,1,-868,612) translate(0 17.77777777777778)"/><use xlink:href="#n" transform="matrix(1,0,0,1,-868,612) translate(72.65432098765432 17.77777777777778)"/><path d="M-860.38 706.33H-924a6 6 0 0 0-6 6v398a6 6 0 0 1-6 6h-21.5" stroke="#5e5e5e" stroke-width="2" fill="none"/><path d="M-845.1 706.33l-14.28 4.64v-9.27z" stroke="#5e5e5e" stroke-width="2" fill="#5e5e5e"/><path d="M-957.47 1117.3h-1.1l.07-.95-.03-1h1.06z" stroke="#5e5e5e" stroke-width=".05" fill="#5e5e5e"/><path d="M-880 826a6 6 0 0 1 6-6h727.63a6 6 0 0 1 6 6v184a6 6 0 0 1-6 6H-874a6 6 0 0 1-6-6z" stroke="#5e5e5e" stroke-width="3" fill="#e5e5e5"/><use xlink:href="#P" transform="matrix(1,0,0,1,-868,832) translate(0 17.77777777777778)"/><use xlink:href="#n" transform="matrix(1,0,0,1,-868,832) translate(41.97530864197531 17.77777777777778)"/><path d="M-400.38 654a6 6 0 0 1 6-6H-166a6 6 0 0 1 6 6v104.67a6 6 0 0 1-6 6h-228.38a6 6 0 0 1-6-6z" stroke="#5e5e5e" stroke-width="3" fill="#fff"/><use xlink:href="#O" transform="matrix(1,0,0,1,-395.3748663274364,653) translate(0 17.77777777777778)"/><use xlink:href="#p" transform="matrix(1,0,0,1,-395.3748663274364,653) translate(72.65432098765432 17.77777777777778)"/><use xlink:href="#q" transform="matrix(1,0,0,1,-395.3748663274364,653) translate(7.222222222222221 44.44444444444444)"/><use xlink:href="#Q" transform="matrix(1,0,0,1,-395.3748663274364,653) translate(22.22222222222222 44.44444444444444)"/><use xlink:href="#R" transform="matrix(1,0,0,1,-395.3748663274364,653) translate(101.17283950617283 44.44444444444444)"/><use xlink:href="#S" transform="matrix(1,0,0,1,-395.3748663274364,653) translate(155.49382716049382 44.44444444444444)"/><use xlink:href="#T" transform="matrix(1,0,0,1,-395.3748663274364,653) translate(186.23456790123456 44.44444444444444)"/><use xlink:href="#U" transform="matrix(1,0,0,1,-395.3748663274364,653) translate(22.22222222222222 71.11111111111111)"/><use xlink:href="#V" transform="matrix(1,0,0,1,-395.3748663274364,653) translate(57.96296296296296 71.11111111111111)"/><path d="M-840.38 654a6 6 0 0 1 6-6H-606a6 6 0 0 1 6 6v104.67a6 6 0 0 1-6 6h-228.38a6 6 0 0 1-6-6z" stroke="#5e5e5e" stroke-width="3" fill="#fff"/><use xlink:href="#o" transform="matrix(1,0,0,1,-835.3748663274365,653) translate(0 17.77777777777778)"/><use xlink:href="#p" transform="matrix(1,0,0,1,-835.3748663274365,653) translate(82.5925925925926 17.77777777777778)"/><use xlink:href="#q" transform="matrix(1,0,0,1,-835.3748663274365,653) translate(7.222222222222221 44.44444444444444)"/><use xlink:href="#W" transform="matrix(1,0,0,1,-835.3748663274365,653) translate(22.22222222222222 44.44444444444444)"/><use xlink:href="#T" transform="matrix(1,0,0,1,-835.3748663274365,653) translate(92.53086419753086 44.44444444444444)"/><use xlink:href="#X" transform="matrix(1,0,0,1,-835.3748663274365,653) translate(22.22222222222222 71.11111111111111)"/><use xlink:href="#Y" transform="matrix(1,0,0,1,-835.3748663274365,653) translate(160.18518518518522 71.11111111111111)"/><use xlink:href="#Z" transform="matrix(1,0,0,1,-835.3748663274365,653) translate(184.8765432098766 71.11111111111111)"/><use xlink:href="#V" transform="matrix(1,0,0,1,-835.3748663274365,653) translate(22.22222222222222 97.77777777777777)"/><path d="M-452.38 652.6c6.63 0 12 22.4 12 50 0 27.62-5.37 50-12 50h-96c-6.62 0-12-22.38-12-50 0-27.6 5.38-50 12-50z" stroke="#5e5e5e" stroke-width="3" fill="#fff"/><path d="M-452.38 752.6c-6.62 0-12-22.38-12-50 0-27.6 5.38-50 12-50" stroke="#5e5e5e" stroke-width="3" fill="none"/><g><use xlink:href="#K" transform="matrix(1,0,0,1,-555.3748663274364,657.6099290749194) translate(28.21604938271605 36.111111111111114)"/><use xlink:href="#L" transform="matrix(1,0,0,1,-555.3748663274364,657.6099290749194) translate(-1.3209876543209944 62.77777777777778)"/></g><path d="M-580.25 706.33h-17.25" stroke="#5e5e5e" stroke-width="2" fill="none"/><path d="M-564.98 706.33l-14.27 4.64v-9.27z" stroke="#5e5e5e" stroke-width="2" fill="#5e5e5e"/><path d="M-597.47 707.3h-1.03v-1.94h1.03z" stroke="#5e5e5e" stroke-width=".05" fill="#5e5e5e"/><path d="M-420.38 706.33a.07.07 0 0 1-.07-.07v-.3a.36.36 0 0 0-.36-.35h-17.22" stroke="#5e5e5e" stroke-width="2" fill="none"/><path d="M-405.1 706.33l-14.28 4.64v-9.27z" stroke="#5e5e5e" stroke-width="2" fill="#5e5e5e"/><path d="M-438 706.6h-1.06l.1-1.97h.97z" stroke="#5e5e5e" stroke-width=".05" fill="#5e5e5e"/><path d="M-400.38 874a6 6 0 0 1 6-6H-166a6 6 0 0 1 6 6v104.67a6 6 0 0 1-6 6h-228.38a6 6 0 0 1-6-6z" stroke="#5e5e5e" stroke-width="3" fill="#fff"/><g><use xlink:href="#P" transform="matrix(1,0,0,1,-395.3748663274364,873) translate(0 17.77777777777778)"/><use xlink:href="#p" transform="matrix(1,0,0,1,-395.3748663274364,873) translate(41.97530864197531 17.77777777777778)"/><use xlink:href="#q" transform="matrix(1,0,0,1,-395.3748663274364,873) translate(7.222222222222221 44.44444444444444)"/><use xlink:href="#Q" transform="matrix(1,0,0,1,-395.3748663274364,873) translate(22.22222222222222 44.44444444444444)"/><use xlink:href="#R" transform="matrix(1,0,0,1,-395.3748663274364,873) translate(101.17283950617283 44.44444444444444)"/><use xlink:href="#S" transform="matrix(1,0,0,1,-395.3748663274364,873) translate(155.49382716049382 44.44444444444444)"/><use xlink:href="#T" transform="matrix(1,0,0,1,-395.3748663274364,873) translate(186.23456790123456 44.44444444444444)"/><use xlink:href="#U" transform="matrix(1,0,0,1,-395.3748663274364,873) translate(22.22222222222222 71.11111111111111)"/><use xlink:href="#V" transform="matrix(1,0,0,1,-395.3748663274364,873) translate(57.96296296296296 71.11111111111111)"/></g><path d="M-840.75 874a6 6 0 0 1 6-6h228.38a6 6 0 0 1 6 6v104.67a6 6 0 0 1-6 6h-228.38a6 6 0 0 1-6-6z" stroke="#5e5e5e" stroke-width="3" fill="#fff"/><g><use xlink:href="#o" transform="matrix(1,0,0,1,-835.7497326548728,873) translate(0 17.77777777777778)"/><use xlink:href="#aa" transform="matrix(1,0,0,1,-835.7497326548728,873) translate(82.5925925925926 17.77777777777778)"/><use xlink:href="#q" transform="matrix(1,0,0,1,-835.7497326548728,873) translate(7.222222222222221 44.44444444444444)"/><use xlink:href="#W" transform="matrix(1,0,0,1,-835.7497326548728,873) translate(22.22222222222222 44.44444444444444)"/><use xlink:href="#T" transform="matrix(1,0,0,1,-835.7497326548728,873) translate(92.53086419753086 44.44444444444444)"/><use xlink:href="#X" transform="matrix(1,0,0,1,-835.7497326548728,873) translate(22.22222222222222 71.11111111111111)"/><use xlink:href="#Y" transform="matrix(1,0,0,1,-835.7497326548728,873) translate(160.18518518518522 71.11111111111111)"/><use xlink:href="#Z" transform="matrix(1,0,0,1,-835.7497326548728,873) translate(184.8765432098766 71.11111111111111)"/><use xlink:href="#V" transform="matrix(1,0,0,1,-835.7497326548728,873) translate(22.22222222222222 97.77777777777777)"/></g><path d="M-453.13 875.6c6.63 0 12 22.4 12 50 0 27.62-5.37 50-12 50h-96c-6.62 0-12-22.38-12-50 0-27.6 5.38-50 12-50z" stroke="#5e5e5e" stroke-width="3" fill="#fff"/><path d="M-453.13 975.6c-6.62 0-12-22.38-12-50 0-27.6 5.38-50 12-50" stroke="#5e5e5e" stroke-width="3" fill="none"/><g><use xlink:href="#K" transform="matrix(1,0,0,1,-556.1245989823092,880.6099290749194) translate(28.21604938271605 36.111111111111114)"/><use xlink:href="#L" transform="matrix(1,0,0,1,-556.1245989823092,880.6099290749194) translate(-1.3209876543209944 62.77777777777778)"/></g><path d="M-420.38 926.33a.36.36 0 0 1-.37-.36.36.36 0 0 0-.36-.36h-17.52" stroke="#5e5e5e" stroke-width="2" fill="none"/><path d="M-405.1 926.33l-14.28 4.64v-9.27z" stroke="#5e5e5e" stroke-width="2" fill="#5e5e5e"/><path d="M-438.6 926.6h-1.07l.05-.98-.04-1h1.06z" stroke="#5e5e5e" stroke-width=".05" fill="#5e5e5e"/><path d="M-880 1046a6 6 0 0 1 6-6h727.25a6 6 0 0 1 6 6v184a6 6 0 0 1-6 6H-874a6 6 0 0 1-6-6z" stroke="#5e5e5e" stroke-width="3" fill="#e5e5e5"/><g><use xlink:href="#ab" transform="matrix(1,0,0,1,-868,1052) translate(0 17.77777777777778)"/><use xlink:href="#n" transform="matrix(1,0,0,1,-868,1052) translate(102.34567901234568 17.77777777777778)"/></g><path d="M-400.75 1094a6 6 0 0 1 6-6h228.38a6 6 0 0 1 6 6v104.67a6 6 0 0 1-6 6h-228.38a6 6 0 0 1-6-6z" stroke="#5e5e5e" stroke-width="3" fill="#fff"/><g><use xlink:href="#ab" transform="matrix(1,0,0,1,-395.7497326548728,1093) translate(0 17.77777777777778)"/><use xlink:href="#p" transform="matrix(1,0,0,1,-395.7497326548728,1093) translate(102.34567901234568 17.77777777777778)"/><use xlink:href="#q" transform="matrix(1,0,0,1,-395.7497326548728,1093) translate(7.222222222222221 44.44444444444444)"/><use xlink:href="#Q" transform="matrix(1,0,0,1,-395.7497326548728,1093) translate(22.22222222222222 44.44444444444444)"/><use xlink:href="#R" transform="matrix(1,0,0,1,-395.7497326548728,1093) translate(101.17283950617283 44.44444444444444)"/><use xlink:href="#S" transform="matrix(1,0,0,1,-395.7497326548728,1093) translate(155.49382716049382 44.44444444444444)"/><use xlink:href="#T" transform="matrix(1,0,0,1,-395.7497326548728,1093) translate(186.23456790123456 44.44444444444444)"/><use xlink:href="#U" transform="matrix(1,0,0,1,-395.7497326548728,1093) translate(22.22222222222222 71.11111111111111)"/><use xlink:href="#V" transform="matrix(1,0,0,1,-395.7497326548728,1093) translate(57.96296296296296 71.11111111111111)"/></g><path d="M-841.13 1094a6 6 0 0 1 6-6h228.38a6 6 0 0 1 6 6v104.67a6 6 0 0 1-6 6h-228.38a6 6 0 0 1-6-6z" stroke="#5e5e5e" stroke-width="3" fill="#fff"/><g><use xlink:href="#o" transform="matrix(1,0,0,1,-836.1245989823092,1093.0000000000002) translate(0 17.77777777777778)"/><use xlink:href="#p" transform="matrix(1,0,0,1,-836.1245989823092,1093.0000000000002) translate(82.5925925925926 17.77777777777778)"/><use xlink:href="#q" transform="matrix(1,0,0,1,-836.1245989823092,1093.0000000000002) translate(7.222222222222221 44.44444444444444)"/><use xlink:href="#W" transform="matrix(1,0,0,1,-836.1245989823092,1093.0000000000002) translate(22.22222222222222 44.44444444444444)"/><use xlink:href="#T" transform="matrix(1,0,0,1,-836.1245989823092,1093.0000000000002) translate(92.53086419753086 44.44444444444444)"/><use xlink:href="#X" transform="matrix(1,0,0,1,-836.1245989823092,1093.0000000000002) translate(22.22222222222222 71.11111111111111)"/><use xlink:href="#Y" transform="matrix(1,0,0,1,-836.1245989823092,1093.0000000000002) translate(160.18518518518522 71.11111111111111)"/><use xlink:href="#Z" transform="matrix(1,0,0,1,-836.1245989823092,1093.0000000000002) translate(184.8765432098766 71.11111111111111)"/><use xlink:href="#V" transform="matrix(1,0,0,1,-836.1245989823092,1093.0000000000002) translate(22.22222222222222 97.77777777777777)"/></g><path d="M-452 1096.33c6.63 0 12 22.4 12 50 0 27.62-5.37 50-12 50h-96c-6.63 0-12-22.38-12-50 0-27.6 5.37-50 12-50z" stroke="#5e5e5e" stroke-width="3" fill="#fff"/><path d="M-452 1196.33c-6.63 0-12-22.38-12-50 0-27.6 5.37-50 12-50" stroke="#5e5e5e" stroke-width="3" fill="none"/><g><use xlink:href="#K" transform="matrix(1,0,0,1,-555,1101.3333333333335) translate(28.21604938271605 36.111111111111114)"/><use xlink:href="#L" transform="matrix(1,0,0,1,-555,1101.3333333333335) translate(-1.3209876543209944 62.77777777777778)"/></g><path d="M-420.75 1146.33h-16.75" stroke="#5e5e5e" stroke-width="2" fill="none"/><path d="M-405.5 1146.33l-14.25 4.64v-9.27z" stroke="#5e5e5e" stroke-width="2" fill="#5e5e5e"/><path d="M-437.47 1147.3h-1.07l.04-.96-.03-.98h1.06z" stroke="#5e5e5e" stroke-width=".05" fill="#5e5e5e"/><path d="M-580 1146.33h-18.25" stroke="#5e5e5e" stroke-width="2" fill="none"/><path d="M-564.74 1146.33l-14.26 4.64v-9.27z" stroke="#5e5e5e" stroke-width="2" fill="#5e5e5e"/><path d="M-598.22 1147.3h-1.03v-1.94h1.03z" stroke="#5e5e5e" stroke-width=".05" fill="#5e5e5e"/><path d="M-580.75 926v.16a.17.17 0 0 1-.17.17h-16.96" stroke="#5e5e5e" stroke-width="2" fill="none"/><path d="M-565.86 925.68l-14.17 4.93-.2-9.26z" stroke="#5e5e5e" stroke-width="2" fill="#5e5e5e"/><path d="M-597.85 927.3h-1.02v-1.94h1.02z" stroke="#5e5e5e" stroke-width=".05" fill="#5e5e5e"/><path d="M-957.5 1116.33h51.13a6 6 0 0 0 6-6v-178a6 6 0 0 1 6-6h33.62" stroke="#5e5e5e" stroke-width="2" fill="none"/><path d="M-957.47 1117.3h-1.1l.07-.95-.03-1h1.06z" stroke="#5e5e5e" stroke-width=".05" fill="#5e5e5e"/><path d="M-845.5 926.33l-14.25 4.64v-9.27z" stroke="#5e5e5e" stroke-width="2" fill="#5e5e5e"/><path d="M-861.13 1146.33H-934a6 6 0 0 1-6-6v-18a6 6 0 0 0-6-6h-11.5" stroke="#5e5e5e" stroke-width="2" fill="none"/><path d="M-845.86 1146.33l-14.27 4.64v-9.27z" stroke="#5e5e5e" stroke-width="2" fill="#5e5e5e"/><path d="M-957.47 1117.3h-1.1l.07-.95-.03-1h1.06z" stroke="#5e5e5e" stroke-width=".05" fill="#5e5e5e"/><defs><path d="M177-190C167-65 218 103 67 71c-23-6-38-20-44-43l32-5c15 47 100 32 89-28v-30C133-14 115 1 83 1 29 1 15-40 15-95c0-56 16-97 71-98 29-1 48 16 59 35 1-10 0-23 2-32h30zM94-22c36 0 50-32 50-73 0-42-14-75-50-75-39 0-46 34-46 75s6 73 46 73" id="ac"/><path d="M24-231v-30h32v30H24zM24 0v-190h32V0H24" id="ad"/><path d="M59-47c-2 24 18 29 38 22v24C64 9 27 4 27-40v-127H5v-23h24l9-43h21v43h35v23H59v120" id="ae"/><path d="M-5 72V49h209v23H-5" id="af"/><path d="M85-194c31 0 48 13 60 33l-1-100h32l1 261h-30c-2-10 0-23-3-31C134-8 116 4 85 4 32 4 16-35 15-94c0-66 23-100 70-100zm9 24c-40 0-46 34-46 75 0 40 6 74 45 74 42 0 51-32 51-76 0-42-9-74-50-73" id="ag"/><path d="M141-36C126-15 110 5 73 4 37 3 15-17 15-53c-1-64 63-63 125-63 3-35-9-54-41-54-24 1-41 7-42 31l-33-3c5-37 33-52 76-52 45 0 72 20 72 64v82c-1 20 7 32 28 27v20c-31 9-61-2-59-35zM48-53c0 20 12 33 32 33 41-3 63-29 60-74-43 2-92-5-92 41" id="ah"/><path d="M100-194c63 0 86 42 84 106H49c0 40 14 67 53 68 26 1 43-12 49-29l28 8c-11 28-37 45-77 45C44 4 14-33 15-96c1-61 26-98 85-98zm52 81c6-60-76-77-97-28-3 7-6 17-6 28h103" id="ai"/><path d="M210-169c-67 3-38 105-44 169h-31v-121c0-29-5-50-35-48C34-165 62-65 56 0H25l-1-190h30c1 10-1 24 2 32 10-44 99-50 107 0 11-21 27-35 58-36 85-2 47 119 55 194h-31v-121c0-29-5-49-35-48" id="aj"/><path d="M100-194c62-1 85 37 85 99 1 63-27 99-86 99S16-35 15-95c0-66 28-99 85-99zM99-20c44 1 53-31 53-75 0-43-8-75-51-75s-53 32-53 75 10 74 51 75" id="ak"/><path d="M117-194c89-4 53 116 60 194h-32v-121c0-31-8-49-39-48C34-167 62-67 57 0H25l-1-190h30c1 10-1 24 2 32 11-22 29-35 61-36" id="al"/><g id="a"><use transform="matrix(0.06172839506172839,0,0,0.06172839506172839,0,0)" xlink:href="#ac"/><use transform="matrix(0.06172839506172839,0,0,0.06172839506172839,12.345679012345679,0)" xlink:href="#ad"/><use transform="matrix(0.06172839506172839,0,0,0.06172839506172839,17.22222222222222,0)" xlink:href="#ae"/><use transform="matrix(0.06172839506172839,0,0,0.06172839506172839,23.39506172839506,0)" xlink:href="#af"/><use transform="matrix(0.06172839506172839,0,0,0.06172839506172839,35.74074074074074,0)" xlink:href="#ag"/><use transform="matrix(0.06172839506172839,0,0,0.06172839506172839,48.08641975308642,0)" xlink:href="#ah"/><use transform="matrix(0.06172839506172839,0,0,0.06172839506172839,60.432098765432094,0)" xlink:href="#ai"/><use transform="matrix(0.06172839506172839,0,0,0.06172839506172839,72.77777777777777,0)" xlink:href="#aj"/><use transform="matrix(0.06172839506172839,0,0,0.06172839506172839,91.23456790123456,0)" xlink:href="#ak"/><use transform="matrix(0.06172839506172839,0,0,0.06172839506172839,103.58024691358024,0)" xlink:href="#al"/></g><path d="M114-163C36-179 61-72 57 0H25l-1-190h30c1 12-1 29 2 39 6-27 23-49 58-41v29" id="am"/><path d="M115-194c55 1 70 41 70 98S169 2 115 4C84 4 66-9 55-30l1 105H24l-1-265h31l2 30c10-21 28-34 59-34zm-8 174c40 0 45-34 45-75s-6-73-45-74c-42 0-51 32-51 76 0 43 10 73 51 73" id="an"/><path d="M185-189c-5-48-123-54-124 2 14 75 158 14 163 119 3 78-121 87-175 55-17-10-28-26-33-46l33-7c5 56 141 63 141-1 0-78-155-14-162-118-5-82 145-84 179-34 5 7 8 16 11 25" id="ao"/><path d="M179-190L93 31C79 59 56 82 12 73V49c39 6 53-20 64-50L1-190h34L92-34l54-156h33" id="ap"/><path d="M96-169c-40 0-48 33-48 73s9 75 48 75c24 0 41-14 43-38l32 2c-6 37-31 61-74 61-59 0-76-41-82-99-10-93 101-131 147-64 4 7 5 14 7 22l-32 3c-4-21-16-35-41-35" id="aq"/><path d="M240 0l2-218c-23 76-54 145-80 218h-23L58-218 59 0H30v-248h44l77 211c21-75 51-140 76-211h43V0h-30" id="ar"/><g id="b"><use transform="matrix(0.06172839506172839,0,0,0.06172839506172839,0,0)" xlink:href="#am"/><use transform="matrix(0.06172839506172839,0,0,0.06172839506172839,7.345679012345679,0)" xlink:href="#ai"/><use transform="matrix(0.06172839506172839,0,0,0.06172839506172839,19.691358024691358,0)" xlink:href="#an"/><use transform="matrix(0.06172839506172839,0,0,0.06172839506172839,32.03703703703704,0)" xlink:href="#ak"/><use transform="matrix(0.06172839506172839,0,0,0.06172839506172839,44.382716049382715,0)" xlink:href="#ao"/><use transform="matrix(0.06172839506172839,0,0,0.06172839506172839,59.19753086419753,0)" xlink:href="#ap"/><use transform="matrix(0.06172839506172839,0,0,0.06172839506172839,70.30864197530865,0)" xlink:href="#al"/><use transform="matrix(0.06172839506172839,0,0,0.06172839506172839,82.65432098765433,0)" xlink:href="#aq"/><use transform="matrix(0.06172839506172839,0,0,0.06172839506172839,93.76543209876544,0)" xlink:href="#ar"/><use transform="matrix(0.06172839506172839,0,0,0.06172839506172839,112.22222222222223,0)" xlink:href="#ak"/><use transform="matrix(0.06172839506172839,0,0,0.06172839506172839,124.56790123456791,0)" xlink:href="#ag"/><use transform="matrix(0.06172839506172839,0,0,0.06172839506172839,136.9135802469136,0)" xlink:href="#ai"/></g><path fill="#fff" d="M190 0L58-211 59 0H30v-248h39L202-35l-2-213h31V0h-41" id="as"/><path fill="#fff" d="M100-194c63 0 86 42 84 106H49c0 40 14 67 53 68 26 1 43-12 49-29l28 8c-11 28-37 45-77 45C44 4 14-33 15-96c1-61 26-98 85-98zm52 81c6-60-76-77-97-28-3 7-6 17-6 28h103" id="at"/><path fill="#fff" d="M59-47c-2 24 18 29 38 22v24C64 9 27 4 27-40v-127H5v-23h24l9-43h21v43h35v23H59v120" id="au"/><path fill="#fff" d="M206 0h-36l-40-164L89 0H53L-1-190h32L70-26l43-164h34l41 164 42-164h31" id="av"/><path fill="#fff" d="M100-194c62-1 85 37 85 99 1 63-27 99-86 99S16-35 15-95c0-66 28-99 85-99zM99-20c44 1 53-31 53-75 0-43-8-75-51-75s-53 32-53 75 10 74 51 75" id="aw"/><path fill="#fff" d="M114-163C36-179 61-72 57 0H25l-1-190h30c1 12-1 29 2 39 6-27 23-49 58-41v29" id="ax"/><path fill="#fff" d="M143 0L79-87 56-68V0H24v-261h32v163l83-92h37l-77 82L181 0h-38" id="ay"/><path fill="#fff" d="M30-248c87 1 191-15 191 75 0 78-77 80-158 76V0H30v-248zm33 125c57 0 124 11 124-50 0-59-68-47-124-48v98" id="az"/><path fill="#fff" d="M24 0v-261h32V0H24" id="aA"/><path fill="#fff" d="M24-231v-30h32v30H24zM24 0v-190h32V0H24" id="aB"/><path fill="#fff" d="M96-169c-40 0-48 33-48 73s9 75 48 75c24 0 41-14 43-38l32 2c-6 37-31 61-74 61-59 0-76-41-82-99-10-93 101-131 147-64 4 7 5 14 7 22l-32 3c-4-21-16-35-41-35" id="aC"/><path fill="#fff" d="M179-190L93 31C79 59 56 82 12 73V49c39 6 53-20 64-50L1-190h34L92-34l54-156h33" id="aD"/><g id="c"><use transform="matrix(0.06172839506172839,0,0,0.06172839506172839,0,0)" xlink:href="#as"/><use transform="matrix(0.06172839506172839,0,0,0.06172839506172839,15.987654320987653,0)" xlink:href="#at"/><use transform="matrix(0.06172839506172839,0,0,0.06172839506172839,28.333333333333332,0)" xlink:href="#au"/><use transform="matrix(0.06172839506172839,0,0,0.06172839506172839,34.50617283950617,0)" xlink:href="#av"/><use transform="matrix(0.06172839506172839,0,0,0.06172839506172839,50.49382716049382,0)" xlink:href="#aw"/><use transform="matrix(0.06172839506172839,0,0,0.06172839506172839,62.8395061728395,0)" xlink:href="#ax"/><use transform="matrix(0.06172839506172839,0,0,0.06172839506172839,70.18518518518518,0)" xlink:href="#ay"/><use transform="matrix(0.06172839506172839,0,0,0.06172839506172839,81.29629629629629,0)" xlink:href="#az"/><use transform="matrix(0.06172839506172839,0,0,0.06172839506172839,96.1111111111111,0)" xlink:href="#aw"/><use transform="matrix(0.06172839506172839,0,0,0.06172839506172839,108.45679012345678,0)" xlink:href="#aA"/><use transform="matrix(0.06172839506172839,0,0,0.06172839506172839,113.33333333333333,0)" xlink:href="#aB"/><use transform="matrix(0.06172839506172839,0,0,0.06172839506172839,118.20987654320987,0)" xlink:href="#aC"/><use transform="matrix(0.06172839506172839,0,0,0.06172839506172839,129.320987654321,0)" xlink:href="#aD"/></g><path fill="#fff" d="M210-169c-67 3-38 105-44 169h-31v-121c0-29-5-50-35-48C34-165 62-65 56 0H25l-1-190h30c1 10-1 24 2 32 10-44 99-50 107 0 11-21 27-35 58-36 85-2 47 119 55 194h-31v-121c0-29-5-49-35-48" id="aE"/><path fill="#fff" d="M135-143c-3-34-86-38-87 0 15 53 115 12 119 90S17 21 10-45l28-5c4 36 97 45 98 0-10-56-113-15-118-90-4-57 82-63 122-42 12 7 21 19 24 35" id="aF"/><g id="d"><use transform="matrix(0.06172839506172839,0,0,0.06172839506172839,0,0)" xlink:href="#aA"/><use transform="matrix(0.06172839506172839,0,0,0.06172839506172839,4.876543209876543,0)" xlink:href="#aB"/><use transform="matrix(0.06172839506172839,0,0,0.06172839506172839,9.753086419753085,0)" xlink:href="#aE"/><use transform="matrix(0.06172839506172839,0,0,0.06172839506172839,28.209876543209873,0)" xlink:href="#aB"/><use transform="matrix(0.06172839506172839,0,0,0.06172839506172839,33.08641975308642,0)" xlink:href="#au"/><use transform="matrix(0.06172839506172839,0,0,0.06172839506172839,39.25925925925926,0)" xlink:href="#aF"/></g><path fill="#fff" d="M141-36C126-15 110 5 73 4 37 3 15-17 15-53c-1-64 63-63 125-63 3-35-9-54-41-54-24 1-41 7-42 31l-33-3c5-37 33-52 76-52 45 0 72 20 72 64v82c-1 20 7 32 28 27v20c-31 9-61-2-59-35zM48-53c0 20 12 33 32 33 41-3 63-29 60-74-43 2-92-5-92 41" id="aG"/><path fill="#fff" d="M101-234c-31-9-42 10-38 44h38v23H63V0H32v-167H5v-23h27c-7-52 17-82 69-68v24" id="aH"/><g id="e"><use transform="matrix(0.06172839506172839,0,0,0.06172839506172839,0,0)" xlink:href="#au"/><use transform="matrix(0.06172839506172839,0,0,0.06172839506172839,6.172839506172839,0)" xlink:href="#ax"/><use transform="matrix(0.06172839506172839,0,0,0.06172839506172839,13.518518518518519,0)" xlink:href="#aG"/><use transform="matrix(0.06172839506172839,0,0,0.06172839506172839,25.864197530864196,0)" xlink:href="#aH"/><use transform="matrix(0.06172839506172839,0,0,0.06172839506172839,31.604938271604937,0)" xlink:href="#aH"/><use transform="matrix(0.06172839506172839,0,0,0.06172839506172839,37.77777777777778,0)" xlink:href="#aB"/><use transform="matrix(0.06172839506172839,0,0,0.06172839506172839,42.65432098765432,0)" xlink:href="#aC"/></g><g id="f"><use transform="matrix(0.06172839506172839,0,0,0.06172839506172839,0,0)" xlink:href="#au"/><use transform="matrix(0.06172839506172839,0,0,0.06172839506172839,6.172839506172839,0)" xlink:href="#aw"/></g><path fill="#fff" d="M84 4C-5 8 30-112 23-190h32v120c0 31 7 50 39 49 72-2 45-101 50-169h31l1 190h-30c-1-10 1-25-2-33-11 22-28 36-60 37" id="aI"/><path fill="#fff" d="M117-194c89-4 53 116 60 194h-32v-121c0-31-8-49-39-48C34-167 62-67 57 0H25l-1-190h30c1 10-1 24 2 32 11-22 29-35 61-36" id="aJ"/><g id="g"><use transform="matrix(0.06172839506172839,0,0,0.06172839506172839,0,0)" xlink:href="#aC"/><use transform="matrix(0.06172839506172839,0,0,0.06172839506172839,11.11111111111111,0)" xlink:href="#aI"/><use transform="matrix(0.06172839506172839,0,0,0.06172839506172839,23.45679012345679,0)" xlink:href="#ax"/><use transform="matrix(0.06172839506172839,0,0,0.06172839506172839,30.80246913580247,0)" xlink:href="#ax"/><use transform="matrix(0.06172839506172839,0,0,0.06172839506172839,38.148148148148145,0)" xlink:href="#at"/><use transform="matrix(0.06172839506172839,0,0,0.06172839506172839,50.49382716049382,0)" xlink:href="#aJ"/><use transform="matrix(0.06172839506172839,0,0,0.06172839506172839,62.8395061728395,0)" xlink:href="#au"/></g><path fill="#fff" d="M115-194c55 1 70 41 70 98S169 2 115 4C84 4 66-9 55-30l1 105H24l-1-265h31l2 30c10-21 28-34 59-34zm-8 174c40 0 45-34 45-75s-6-73-45-74c-42 0-51 32-51 76 0 43 10 73 51 73" id="aK"/><g id="h"><use transform="matrix(0.06172839506172839,0,0,0.06172839506172839,0,0)" xlink:href="#as"/><use transform="matrix(0.06172839506172839,0,0,0.06172839506172839,15.987654320987653,0)" xlink:href="#aG"/><use transform="matrix(0.06172839506172839,0,0,0.06172839506172839,28.333333333333332,0)" xlink:href="#aE"/><use transform="matrix(0.06172839506172839,0,0,0.06172839506172839,46.79012345679012,0)" xlink:href="#at"/><use transform="matrix(0.06172839506172839,0,0,0.06172839506172839,59.1358024691358,0)" xlink:href="#aF"/><use transform="matrix(0.06172839506172839,0,0,0.06172839506172839,70.24691358024691,0)" xlink:href="#aK"/><use transform="matrix(0.06172839506172839,0,0,0.06172839506172839,82.5925925925926,0)" xlink:href="#aG"/><use transform="matrix(0.06172839506172839,0,0,0.06172839506172839,94.93827160493828,0)" xlink:href="#aC"/><use transform="matrix(0.06172839506172839,0,0,0.06172839506172839,106.0493827160494,0)" xlink:href="#at"/></g><path fill="#333" d="M127-220V0H93v-220H8v-28h204v28h-85" id="aL"/><path fill="#333" d="M106-169C34-169 62-67 57 0H25v-261h32l-1 103c12-21 28-36 61-36 89 0 53 116 60 194h-32v-121c2-32-8-49-39-48" id="aM"/><path fill="#333" d="M100-194c63 0 86 42 84 106H49c0 40 14 67 53 68 26 1 43-12 49-29l28 8c-11 28-37 45-77 45C44 4 14-33 15-96c1-61 26-98 85-98zm52 81c6-60-76-77-97-28-3 7-6 17-6 28h103" id="aN"/><g id="i"><use transform="matrix(0.06172839506172839,0,0,0.06172839506172839,0,0)" xlink:href="#aL"/><use transform="matrix(0.06172839506172839,0,0,0.06172839506172839,13.518518518518517,0)" xlink:href="#aM"/><use transform="matrix(0.06172839506172839,0,0,0.06172839506172839,25.864197530864196,0)" xlink:href="#aN"/></g><path fill="#333" d="M33 0v-248h34V0H33" id="aO"/><path fill="#333" d="M117-194c89-4 53 116 60 194h-32v-121c0-31-8-49-39-48C34-167 62-67 57 0H25l-1-190h30c1 10-1 24 2 32 11-22 29-35 61-36" id="aP"/><path fill="#333" d="M59-47c-2 24 18 29 38 22v24C64 9 27 4 27-40v-127H5v-23h24l9-43h21v43h35v23H59v120" id="aQ"/><path fill="#333" d="M114-163C36-179 61-72 57 0H25l-1-190h30c1 12-1 29 2 39 6-27 23-49 58-41v29" id="aR"/><g id="j"><use transform="matrix(0.06172839506172839,0,0,0.06172839506172839,0,0)" xlink:href="#aO"/><use transform="matrix(0.06172839506172839,0,0,0.06172839506172839,6.172839506172839,0)" xlink:href="#aP"/><use transform="matrix(0.06172839506172839,0,0,0.06172839506172839,18.51851851851852,0)" xlink:href="#aQ"/><use transform="matrix(0.06172839506172839,0,0,0.06172839506172839,24.691358024691358,0)" xlink:href="#aN"/><use transform="matrix(0.06172839506172839,0,0,0.06172839506172839,37.03703703703704,0)" xlink:href="#aR"/><use transform="matrix(0.06172839506172839,0,0,0.06172839506172839,44.382716049382715,0)" xlink:href="#aP"/><use transform="matrix(0.06172839506172839,0,0,0.06172839506172839,56.72839506172839,0)" xlink:href="#aN"/><use transform="matrix(0.06172839506172839,0,0,0.06172839506172839,69.07407407407408,0)" xlink:href="#aQ"/></g><path fill="#333" d="M205 0l-28-72H64L36 0H1l101-248h38L239 0h-34zm-38-99l-47-123c-12 45-31 82-46 123h93" id="aS"/><path fill="#333" d="M24-231v-30h32v30H24zM24 0v-190h32V0H24" id="aT"/><path fill="#333" d="M101-234c-31-9-42 10-38 44h38v23H63V0H32v-167H5v-23h27c-7-52 17-82 69-68v24" id="aU"/><path fill="#333" d="M24 0v-261h32V0H24" id="aV"/><path fill="#333" d="M100-194c62-1 85 37 85 99 1 63-27 99-86 99S16-35 15-95c0-66 28-99 85-99zM99-20c44 1 53-31 53-75 0-43-8-75-51-75s-53 32-53 75 10 74 51 75" id="aW"/><path fill="#333" d="M206 0h-36l-40-164L89 0H53L-1-190h32L70-26l43-164h34l41 164 42-164h31" id="aX"/><g id="k"><use transform="matrix(0.06172839506172839,0,0,0.06172839506172839,0,0)" xlink:href="#aS"/><use transform="matrix(0.06172839506172839,0,0,0.06172839506172839,14.814814814814813,0)" xlink:href="#aT"/><use transform="matrix(0.06172839506172839,0,0,0.06172839506172839,19.691358024691354,0)" xlink:href="#aR"/><use transform="matrix(0.06172839506172839,0,0,0.06172839506172839,27.03703703703703,0)" xlink:href="#aU"/><use transform="matrix(0.06172839506172839,0,0,0.06172839506172839,33.20987654320987,0)" xlink:href="#aV"/><use transform="matrix(0.06172839506172839,0,0,0.06172839506172839,38.08641975308642,0)" xlink:href="#aW"/><use transform="matrix(0.06172839506172839,0,0,0.06172839506172839,50.432098765432094,0)" xlink:href="#aX"/></g><path fill="#333" d="M30-248c118-7 216 8 213 122C240-48 200 0 122 0H30v-248zM63-27c89 8 146-16 146-99s-60-101-146-95v194" id="aY"/><path fill="#333" d="M115-194c55 1 70 41 70 98S169 2 115 4C84 4 66-9 55-30l1 105H24l-1-265h31l2 30c10-21 28-34 59-34zm-8 174c40 0 45-34 45-75s-6-73-45-74c-42 0-51 32-51 76 0 43 10 73 51 73" id="aZ"/><path fill="#333" d="M179-190L93 31C79 59 56 82 12 73V49c39 6 53-20 64-50L1-190h34L92-34l54-156h33" id="ba"/><path fill="#333" d="M210-169c-67 3-38 105-44 169h-31v-121c0-29-5-50-35-48C34-165 62-65 56 0H25l-1-190h30c1 10-1 24 2 32 10-44 99-50 107 0 11-21 27-35 58-36 85-2 47 119 55 194h-31v-121c0-29-5-49-35-48" id="bb"/><g id="l"><use transform="matrix(0.06172839506172839,0,0,0.06172839506172839,0,0)" xlink:href="#aY"/><use transform="matrix(0.06172839506172839,0,0,0.06172839506172839,15.987654320987653,0)" xlink:href="#aN"/><use transform="matrix(0.06172839506172839,0,0,0.06172839506172839,28.333333333333332,0)" xlink:href="#aZ"/><use transform="matrix(0.06172839506172839,0,0,0.06172839506172839,40.67901234567901,0)" xlink:href="#aV"/><use transform="matrix(0.06172839506172839,0,0,0.06172839506172839,45.55555555555556,0)" xlink:href="#aW"/><use transform="matrix(0.06172839506172839,0,0,0.06172839506172839,57.901234567901234,0)" xlink:href="#ba"/><use transform="matrix(0.06172839506172839,0,0,0.06172839506172839,69.01234567901234,0)" xlink:href="#bb"/><use transform="matrix(0.06172839506172839,0,0,0.06172839506172839,87.46913580246913,0)" xlink:href="#aN"/><use transform="matrix(0.06172839506172839,0,0,0.06172839506172839,99.81481481481481,0)" xlink:href="#aP"/><use transform="matrix(0.06172839506172839,0,0,0.06172839506172839,112.1604938271605,0)" xlink:href="#aQ"/></g><path fill="#333" d="M177-190C167-65 218 103 67 71c-23-6-38-20-44-43l32-5c15 47 100 32 89-28v-30C133-14 115 1 83 1 29 1 15-40 15-95c0-56 16-97 71-98 29-1 48 16 59 35 1-10 0-23 2-32h30zM94-22c36 0 50-32 50-73 0-42-14-75-50-75-39 0-46 34-46 75s6 73 46 73" id="bc"/><path fill="#333" d="M16-82v-28h88v28H16" id="bd"/><path fill="#333" d="M135-143c-3-34-86-38-87 0 15 53 115 12 119 90S17 21 10-45l28-5c4 36 97 45 98 0-10-56-113-15-118-90-4-57 82-63 122-42 12 7 21 19 24 35" id="be"/><path fill="#333" d="M96-169c-40 0-48 33-48 73s9 75 48 75c24 0 41-14 43-38l32 2c-6 37-31 61-74 61-59 0-76-41-82-99-10-93 101-131 147-64 4 7 5 14 7 22l-32 3c-4-21-16-35-41-35" id="bf"/><path fill="#333" d="M141-36C126-15 110 5 73 4 37 3 15-17 15-53c-1-64 63-63 125-63 3-35-9-54-41-54-24 1-41 7-42 31l-33-3c5-37 33-52 76-52 45 0 72 20 72 64v82c-1 20 7 32 28 27v20c-31 9-61-2-59-35zM48-53c0 20 12 33 32 33 41-3 63-29 60-74-43 2-92-5-92 41" id="bg"/><g id="m"><use transform="matrix(0.06172839506172839,0,0,0.06172839506172839,0,0)" xlink:href="#bc"/><use transform="matrix(0.06172839506172839,0,0,0.06172839506172839,12.345679012345679,0)" xlink:href="#aT"/><use transform="matrix(0.06172839506172839,0,0,0.06172839506172839,17.22222222222222,0)" xlink:href="#aQ"/><use transform="matrix(0.06172839506172839,0,0,0.06172839506172839,23.39506172839506,0)" xlink:href="#bd"/><use transform="matrix(0.06172839506172839,0,0,0.06172839506172839,30.74074074074074,0)" xlink:href="#be"/><use transform="matrix(0.06172839506172839,0,0,0.06172839506172839,41.85185185185185,0)" xlink:href="#ba"/><use transform="matrix(0.06172839506172839,0,0,0.06172839506172839,52.96296296296296,0)" xlink:href="#aP"/><use transform="matrix(0.06172839506172839,0,0,0.06172839506172839,65.30864197530865,0)" xlink:href="#bf"/><use transform="matrix(0.06172839506172839,0,0,0.06172839506172839,76.41975308641976,0)" xlink:href="#bd"/><use transform="matrix(0.06172839506172839,0,0,0.06172839506172839,83.76543209876544,0)" xlink:href="#aR"/><use transform="matrix(0.06172839506172839,0,0,0.06172839506172839,91.11111111111113,0)" xlink:href="#aN"/><use transform="matrix(0.06172839506172839,0,0,0.06172839506172839,103.45679012345681,0)" xlink:href="#aV"/><use transform="matrix(0.06172839506172839,0,0,0.06172839506172839,108.33333333333336,0)" xlink:href="#bg"/><use transform="matrix(0.06172839506172839,0,0,0.06172839506172839,120.67901234567904,0)" xlink:href="#ba"/></g><path fill="#333" d="M30-248c87 1 191-15 191 75 0 78-77 80-158 76V0H30v-248zm33 125c57 0 124 11 124-50 0-59-68-47-124-48v98" id="bh"/><path fill="#333" d="M85-194c31 0 48 13 60 33l-1-100h32l1 261h-30c-2-10 0-23-3-31C134-8 116 4 85 4 32 4 16-35 15-94c0-66 23-100 70-100zm9 24c-40 0-46 34-46 75 0 40 6 74 45 74 42 0 51-32 51-76 0-42-9-74-50-73" id="bi"/><g id="n"><use transform="matrix(0.06172839506172839,0,0,0.06172839506172839,0,0)" xlink:href="#bh"/><use transform="matrix(0.06172839506172839,0,0,0.06172839506172839,14.814814814814813,0)" xlink:href="#aW"/><use transform="matrix(0.06172839506172839,0,0,0.06172839506172839,27.160493827160494,0)" xlink:href="#bi"/></g><g id="o"><use transform="matrix(0.06172839506172839,0,0,0.06172839506172839,0,0)" xlink:href="#bc"/><use transform="matrix(0.06172839506172839,0,0,0.06172839506172839,12.345679012345679,0)" xlink:href="#aT"/><use transform="matrix(0.06172839506172839,0,0,0.06172839506172839,17.22222222222222,0)" xlink:href="#aQ"/><use transform="matrix(0.06172839506172839,0,0,0.06172839506172839,23.39506172839506,0)" xlink:href="#bd"/><use transform="matrix(0.06172839506172839,0,0,0.06172839506172839,30.74074074074074,0)" xlink:href="#be"/><use transform="matrix(0.06172839506172839,0,0,0.06172839506172839,41.85185185185185,0)" xlink:href="#ba"/><use transform="matrix(0.06172839506172839,0,0,0.06172839506172839,52.96296296296296,0)" xlink:href="#aP"/><use transform="matrix(0.06172839506172839,0,0,0.06172839506172839,65.30864197530865,0)" xlink:href="#bf"/></g><g id="p"><use transform="matrix(0.06172839506172839,0,0,0.06172839506172839,0,0)" xlink:href="#bf"/><use transform="matrix(0.06172839506172839,0,0,0.06172839506172839,11.11111111111111,0)" xlink:href="#aW"/><use transform="matrix(0.06172839506172839,0,0,0.06172839506172839,23.45679012345679,0)" xlink:href="#aP"/><use transform="matrix(0.06172839506172839,0,0,0.06172839506172839,35.80246913580247,0)" xlink:href="#aQ"/><use transform="matrix(0.06172839506172839,0,0,0.06172839506172839,41.97530864197531,0)" xlink:href="#bg"/><use transform="matrix(0.06172839506172839,0,0,0.06172839506172839,54.32098765432099,0)" xlink:href="#aT"/><use transform="matrix(0.06172839506172839,0,0,0.06172839506172839,59.19753086419753,0)" xlink:href="#aP"/><use transform="matrix(0.06172839506172839,0,0,0.06172839506172839,71.54320987654322,0)" xlink:href="#aN"/><use transform="matrix(0.06172839506172839,0,0,0.06172839506172839,83.8888888888889,0)" xlink:href="#aR"/></g><path fill="#333" d="M62-168c30 0 50 19 50 48S92-70 62-70c-29 0-48-21-48-50s20-48 48-48" id="bj"/><use transform="matrix(0.06172839506172839,0,0,0.06172839506172839,0,0)" xlink:href="#bj" id="q"/><path fill="#333" d="M84 4C-5 8 30-112 23-190h32v120c0 31 7 50 39 49 72-2 45-101 50-169h31l1 190h-30c-1-10 1-25-2-33-11 22-28 36-60 37" id="bk"/><g id="r"><use transform="matrix(0.06172839506172839,0,0,0.06172839506172839,0,0)" xlink:href="#bh"/><use transform="matrix(0.06172839506172839,0,0,0.06172839506172839,14.814814814814813,0)" xlink:href="#bk"/><use transform="matrix(0.06172839506172839,0,0,0.06172839506172839,27.160493827160494,0)" xlink:href="#aV"/><use transform="matrix(0.06172839506172839,0,0,0.06172839506172839,32.03703703703704,0)" xlink:href="#aV"/><use transform="matrix(0.06172839506172839,0,0,0.06172839506172839,36.91358024691358,0)" xlink:href="#be"/></g><g id="s"><use transform="matrix(0.06172839506172839,0,0,0.06172839506172839,0,0)" xlink:href="#aU"/><use transform="matrix(0.06172839506172839,0,0,0.06172839506172839,6.172839506172839,0)" xlink:href="#aR"/><use transform="matrix(0.06172839506172839,0,0,0.06172839506172839,13.518518518518519,0)" xlink:href="#aW"/><use transform="matrix(0.06172839506172839,0,0,0.06172839506172839,25.864197530864196,0)" xlink:href="#bb"/></g><path fill="#333" d="M141 0L90-78 38 0H4l68-98-65-92h35l48 74 47-74h35l-64 92 68 98h-35" id="bl"/><g id="t"><use transform="matrix(0.06172839506172839,0,0,0.06172839506172839,0,0)" xlink:href="#aN"/><use transform="matrix(0.06172839506172839,0,0,0.06172839506172839,12.345679012345679,0)" xlink:href="#bl"/><use transform="matrix(0.06172839506172839,0,0,0.06172839506172839,23.45679012345679,0)" xlink:href="#aQ"/><use transform="matrix(0.06172839506172839,0,0,0.06172839506172839,29.62962962962963,0)" xlink:href="#aN"/><use transform="matrix(0.06172839506172839,0,0,0.06172839506172839,41.97530864197531,0)" xlink:href="#aR"/><use transform="matrix(0.06172839506172839,0,0,0.06172839506172839,49.32098765432099,0)" xlink:href="#aP"/><use transform="matrix(0.06172839506172839,0,0,0.06172839506172839,61.666666666666664,0)" xlink:href="#bg"/><use transform="matrix(0.06172839506172839,0,0,0.06172839506172839,74.01234567901234,0)" xlink:href="#aV"/></g><g id="u"><use transform="matrix(0.06172839506172839,0,0,0.06172839506172839,0,0)" xlink:href="#aR"/><use transform="matrix(0.06172839506172839,0,0,0.06172839506172839,7.345679012345679,0)" xlink:href="#aN"/><use transform="matrix(0.06172839506172839,0,0,0.06172839506172839,19.691358024691358,0)" xlink:href="#aZ"/><use transform="matrix(0.06172839506172839,0,0,0.06172839506172839,32.03703703703704,0)" xlink:href="#aW"/></g><path fill="#333" d="M145-31C134-9 116 4 85 4 32 4 16-35 15-94c0-59 17-99 70-100 32-1 48 14 60 33 0-11-1-24 2-32h30l-1 268h-32zM93-21c41 0 51-33 51-76s-8-73-50-73c-40 0-46 35-46 75s5 74 45 74" id="bm"/><g id="v"><use transform="matrix(0.06172839506172839,0,0,0.06172839506172839,0,0)" xlink:href="#aT"/><use transform="matrix(0.06172839506172839,0,0,0.06172839506172839,4.876543209876543,0)" xlink:href="#aP"/><use transform="matrix(0.06172839506172839,0,0,0.06172839506172839,17.22222222222222,0)" xlink:href="#aU"/><use transform="matrix(0.06172839506172839,0,0,0.06172839506172839,23.39506172839506,0)" xlink:href="#aR"/><use transform="matrix(0.06172839506172839,0,0,0.06172839506172839,30.74074074074074,0)" xlink:href="#aN"/><use transform="matrix(0.06172839506172839,0,0,0.06172839506172839,43.08641975308642,0)" xlink:href="#bm"/><use transform="matrix(0.06172839506172839,0,0,0.06172839506172839,55.432098765432094,0)" xlink:href="#bk"/><use transform="matrix(0.06172839506172839,0,0,0.06172839506172839,67.77777777777777,0)" xlink:href="#aN"/><use transform="matrix(0.06172839506172839,0,0,0.06172839506172839,80.12345679012346,0)" xlink:href="#aP"/><use transform="matrix(0.06172839506172839,0,0,0.06172839506172839,92.46913580246914,0)" xlink:href="#aQ"/><use transform="matrix(0.06172839506172839,0,0,0.06172839506172839,98.64197530864197,0)" xlink:href="#aV"/><use transform="matrix(0.06172839506172839,0,0,0.06172839506172839,103.51851851851852,0)" xlink:href="#ba"/></g><path fill="#333" d="M185-189c-5-48-123-54-124 2 14 75 158 14 163 119 3 78-121 87-175 55-17-10-28-26-33-46l33-7c5 56 141 63 141-1 0-78-155-14-162-118-5-82 145-84 179-34 5 7 8 16 11 25" id="bn"/><g id="w"><use transform="matrix(0.06172839506172839,0,0,0.06172839506172839,0,0)" xlink:href="#bn"/><use transform="matrix(0.06172839506172839,0,0,0.06172839506172839,14.814814814814813,0)" xlink:href="#aQ"/><use transform="matrix(0.06172839506172839,0,0,0.06172839506172839,20.98765432098765,0)" xlink:href="#aW"/><use transform="matrix(0.06172839506172839,0,0,0.06172839506172839,33.33333333333333,0)" xlink:href="#aR"/><use transform="matrix(0.06172839506172839,0,0,0.06172839506172839,40.679012345679006,0)" xlink:href="#aN"/><use transform="matrix(0.06172839506172839,0,0,0.06172839506172839,53.02469135802468,0)" xlink:href="#be"/></g><g id="x"><use transform="matrix(0.06172839506172839,0,0,0.06172839506172839,0,0)" xlink:href="#aR"/><use transform="matrix(0.06172839506172839,0,0,0.06172839506172839,7.345679012345679,0)" xlink:href="#aN"/><use transform="matrix(0.06172839506172839,0,0,0.06172839506172839,19.691358024691358,0)" xlink:href="#aZ"/><use transform="matrix(0.06172839506172839,0,0,0.06172839506172839,32.03703703703704,0)" xlink:href="#aW"/></g><g id="y"><use transform="matrix(0.06172839506172839,0,0,0.06172839506172839,0,0)" xlink:href="#aT"/><use transform="matrix(0.06172839506172839,0,0,0.06172839506172839,4.876543209876543,0)" xlink:href="#aP"/></g><path fill="#333" d="M0 4l72-265h28L28 4H0" id="bo"/><g id="z"><use transform="matrix(0.06172839506172839,0,0,0.06172839506172839,0,0)" xlink:href="#bo"/><use transform="matrix(0.06172839506172839,0,0,0.06172839506172839,6.172839506172839,0)" xlink:href="#bc"/><use transform="matrix(0.06172839506172839,0,0,0.06172839506172839,18.51851851851852,0)" xlink:href="#aT"/><use transform="matrix(0.06172839506172839,0,0,0.06172839506172839,23.395061728395063,0)" xlink:href="#aQ"/><use transform="matrix(0.06172839506172839,0,0,0.06172839506172839,29.567901234567902,0)" xlink:href="#bo"/><use transform="matrix(0.06172839506172839,0,0,0.06172839506172839,35.74074074074074,0)" xlink:href="#aR"/><use transform="matrix(0.06172839506172839,0,0,0.06172839506172839,43.08641975308642,0)" xlink:href="#aN"/><use transform="matrix(0.06172839506172839,0,0,0.06172839506172839,55.432098765432094,0)" xlink:href="#aZ"/><use transform="matrix(0.06172839506172839,0,0,0.06172839506172839,67.77777777777777,0)" xlink:href="#aW"/><use transform="matrix(0.06172839506172839,0,0,0.06172839506172839,80.12345679012346,0)" xlink:href="#aP"/><use transform="matrix(0.06172839506172839,0,0,0.06172839506172839,92.46913580246914,0)" xlink:href="#bg"/><use transform="matrix(0.06172839506172839,0,0,0.06172839506172839,104.81481481481482,0)" xlink:href="#bb"/><use transform="matrix(0.06172839506172839,0,0,0.06172839506172839,123.27160493827161,0)" xlink:href="#aN"/></g><g id="A"><use transform="matrix(0.06172839506172839,0,0,0.06172839506172839,0,0)" xlink:href="#bc"/><use transform="matrix(0.06172839506172839,0,0,0.06172839506172839,12.345679012345679,0)" xlink:href="#aT"/><use transform="matrix(0.06172839506172839,0,0,0.06172839506172839,17.22222222222222,0)" xlink:href="#aQ"/><use transform="matrix(0.06172839506172839,0,0,0.06172839506172839,23.39506172839506,0)" xlink:href="#bd"/><use transform="matrix(0.06172839506172839,0,0,0.06172839506172839,30.74074074074074,0)" xlink:href="#bi"/><use transform="matrix(0.06172839506172839,0,0,0.06172839506172839,43.08641975308642,0)" xlink:href="#bg"/><use transform="matrix(0.06172839506172839,0,0,0.06172839506172839,55.432098765432094,0)" xlink:href="#aN"/><use transform="matrix(0.06172839506172839,0,0,0.06172839506172839,67.77777777777777,0)" xlink:href="#bb"/><use transform="matrix(0.06172839506172839,0,0,0.06172839506172839,86.23456790123456,0)" xlink:href="#aW"/><use transform="matrix(0.06172839506172839,0,0,0.06172839506172839,98.58024691358024,0)" xlink:href="#aP"/></g><path fill="#333" d="M108 0H70L1-190h34L89-25l56-165h34" id="bp"/><g id="B"><use transform="matrix(0.06172839506172839,0,0,0.06172839506172839,0,0)" xlink:href="#bn"/><use transform="matrix(0.06172839506172839,0,0,0.06172839506172839,14.814814814814813,0)" xlink:href="#aN"/><use transform="matrix(0.06172839506172839,0,0,0.06172839506172839,27.160493827160494,0)" xlink:href="#aR"/><use transform="matrix(0.06172839506172839,0,0,0.06172839506172839,34.50617283950617,0)" xlink:href="#bp"/><use transform="matrix(0.06172839506172839,0,0,0.06172839506172839,45.61728395061728,0)" xlink:href="#aN"/><use transform="matrix(0.06172839506172839,0,0,0.06172839506172839,57.962962962962955,0)" xlink:href="#be"/></g><g id="C"><use transform="matrix(0.06172839506172839,0,0,0.06172839506172839,0,0)" xlink:href="#bo"/><use transform="matrix(0.06172839506172839,0,0,0.06172839506172839,6.172839506172839,0)" xlink:href="#bc"/><use transform="matrix(0.06172839506172839,0,0,0.06172839506172839,18.51851851851852,0)" xlink:href="#aT"/><use transform="matrix(0.06172839506172839,0,0,0.06172839506172839,23.395061728395063,0)" xlink:href="#aQ"/><use transform="matrix(0.06172839506172839,0,0,0.06172839506172839,29.567901234567902,0)" xlink:href="#bo"/><use transform="matrix(0.06172839506172839,0,0,0.06172839506172839,35.74074074074074,0)" xlink:href="#aR"/><use transform="matrix(0.06172839506172839,0,0,0.06172839506172839,43.08641975308642,0)" xlink:href="#aN"/><use transform="matrix(0.06172839506172839,0,0,0.06172839506172839,55.432098765432094,0)" xlink:href="#aZ"/><use transform="matrix(0.06172839506172839,0,0,0.06172839506172839,67.77777777777777,0)" xlink:href="#aW"/><use transform="matrix(0.06172839506172839,0,0,0.06172839506172839,80.12345679012346,0)" xlink:href="#aP"/><use transform="matrix(0.06172839506172839,0,0,0.06172839506172839,92.46913580246914,0)" xlink:href="#bg"/><use transform="matrix(0.06172839506172839,0,0,0.06172839506172839,104.81481481481482,0)" xlink:href="#bb"/><use transform="matrix(0.06172839506172839,0,0,0.06172839506172839,123.27160493827161,0)" xlink:href="#aN"/></g><g id="D"><use transform="matrix(0.06172839506172839,0,0,0.06172839506172839,0,0)" xlink:href="#bk"/><use transform="matrix(0.06172839506172839,0,0,0.06172839506172839,12.345679012345679,0)" xlink:href="#be"/><use transform="matrix(0.06172839506172839,0,0,0.06172839506172839,23.45679012345679,0)" xlink:href="#aT"/><use transform="matrix(0.06172839506172839,0,0,0.06172839506172839,28.333333333333336,0)" xlink:href="#aP"/><use transform="matrix(0.06172839506172839,0,0,0.06172839506172839,40.67901234567901,0)" xlink:href="#bc"/></g><g id="E"><use transform="matrix(0.06172839506172839,0,0,0.06172839506172839,0,0)" xlink:href="#bc"/><use transform="matrix(0.06172839506172839,0,0,0.06172839506172839,12.345679012345679,0)" xlink:href="#aT"/><use transform="matrix(0.06172839506172839,0,0,0.06172839506172839,17.22222222222222,0)" xlink:href="#aQ"/></g><g id="F"><use transform="matrix(0.06172839506172839,0,0,0.06172839506172839,0,0)" xlink:href="#aZ"/><use transform="matrix(0.06172839506172839,0,0,0.06172839506172839,12.345679012345679,0)" xlink:href="#aR"/><use transform="matrix(0.06172839506172839,0,0,0.06172839506172839,19.691358024691358,0)" xlink:href="#aW"/><use transform="matrix(0.06172839506172839,0,0,0.06172839506172839,32.03703703703704,0)" xlink:href="#aQ"/><use transform="matrix(0.06172839506172839,0,0,0.06172839506172839,38.20987654320988,0)" xlink:href="#aW"/><use transform="matrix(0.06172839506172839,0,0,0.06172839506172839,50.55555555555556,0)" xlink:href="#bf"/><use transform="matrix(0.06172839506172839,0,0,0.06172839506172839,61.66666666666667,0)" xlink:href="#aW"/><use transform="matrix(0.06172839506172839,0,0,0.06172839506172839,74.01234567901236,0)" xlink:href="#aV"/></g><g id="G"><use transform="matrix(0.06172839506172839,0,0,0.06172839506172839,0,0)" xlink:href="#aZ"/><use transform="matrix(0.06172839506172839,0,0,0.06172839506172839,12.345679012345679,0)" xlink:href="#aW"/><use transform="matrix(0.06172839506172839,0,0,0.06172839506172839,24.691358024691358,0)" xlink:href="#aR"/><use transform="matrix(0.06172839506172839,0,0,0.06172839506172839,32.03703703703704,0)" xlink:href="#aQ"/></g><path fill="#333" d="M99-251c64 0 84 50 84 122C183-37 130 33 47-8c-14-7-20-23-25-40l30-5c6 39 69 39 84 7 9-19 16-44 16-74-10 22-31 35-62 35-49 0-73-33-73-83 0-54 28-83 82-83zm-1 141c31-1 51-18 51-49 0-36-14-67-51-67-34 0-49 23-49 58 0 34 15 58 49 58" id="bq"/><path fill="#333" d="M155-56V0h-30v-56H8v-25l114-167h33v167h35v25h-35zm-30-156c-27 46-58 90-88 131h88v-131" id="br"/><path fill="#333" d="M27 0v-27h64v-190l-56 39v-29l58-41h29v221h61V0H27" id="bs"/><path fill="#333" d="M134-131c28 9 52 24 51 62-1 50-34 73-85 73S17-19 16-69c0-36 21-54 49-61-75-25-45-126 34-121 46 3 78 18 79 63 0 33-17 51-44 57zm-34-11c31 1 46-15 46-44 0-28-17-43-47-42-29 0-46 13-45 42 1 28 16 44 46 44zm1 122c35 0 51-18 51-52 0-30-18-46-53-46-33 0-51 17-51 47 0 34 19 51 53 51" id="bt"/><g id="H"><use transform="matrix(0.06172839506172839,0,0,0.06172839506172839,0,0)" xlink:href="#bq"/><use transform="matrix(0.06172839506172839,0,0,0.06172839506172839,12.345679012345679,0)" xlink:href="#br"/><use transform="matrix(0.06172839506172839,0,0,0.06172839506172839,24.691358024691358,0)" xlink:href="#bs"/><use transform="matrix(0.06172839506172839,0,0,0.06172839506172839,37.03703703703704,0)" xlink:href="#bt"/></g><path d="M143 4C61 4 22-44 18-125c-5-107 100-154 193-111 17 8 29 25 37 43l-32 9c-13-25-37-40-76-40-61 0-88 39-88 99 0 61 29 100 91 101 35 0 62-11 79-27v-45h-74v-28h105v86C228-13 192 4 143 4" id="bu"/><g id="I"><use transform="matrix(0.05,0,0,0.05,0,0)" xlink:href="#bu"/><use transform="matrix(0.05,0,0,0.05,14,0)" xlink:href="#ad"/><use transform="matrix(0.05,0,0,0.05,17.95,0)" xlink:href="#ae"/></g><path d="M135-143c-3-34-86-38-87 0 15 53 115 12 119 90S17 21 10-45l28-5c4 36 97 45 98 0-10-56-113-15-118-90-4-57 82-63 122-42 12 7 21 19 24 35" id="bv"/><g id="J"><use transform="matrix(0.05,0,0,0.05,0,0)" xlink:href="#am"/><use transform="matrix(0.05,0,0,0.05,5.95,0)" xlink:href="#ai"/><use transform="matrix(0.05,0,0,0.05,15.949999999999998,0)" xlink:href="#an"/><use transform="matrix(0.05,0,0,0.05,25.950000000000003,0)" xlink:href="#ak"/><use transform="matrix(0.05,0,0,0.05,35.95,0)" xlink:href="#bv"/><use transform="matrix(0.05,0,0,0.05,44.95,0)" xlink:href="#ad"/><use transform="matrix(0.05,0,0,0.05,48.900000000000006,0)" xlink:href="#ae"/><use transform="matrix(0.05,0,0,0.05,53.900000000000006,0)" xlink:href="#ak"/><use transform="matrix(0.05,0,0,0.05,63.900000000000006,0)" xlink:href="#am"/><use transform="matrix(0.05,0,0,0.05,69.85000000000001,0)" xlink:href="#ap"/></g><g id="K"><use transform="matrix(0.06172839506172839,0,0,0.06172839506172839,0,0)" xlink:href="#bo"/><use transform="matrix(0.06172839506172839,0,0,0.06172839506172839,6.172839506172839,0)" xlink:href="#bc"/><use transform="matrix(0.06172839506172839,0,0,0.06172839506172839,18.51851851851852,0)" xlink:href="#aT"/><use transform="matrix(0.06172839506172839,0,0,0.06172839506172839,23.395061728395063,0)" xlink:href="#aQ"/></g><g id="L"><use transform="matrix(0.06172839506172839,0,0,0.06172839506172839,0,0)" xlink:href="#aN"/><use transform="matrix(0.06172839506172839,0,0,0.06172839506172839,12.345679012345679,0)" xlink:href="#bb"/><use transform="matrix(0.06172839506172839,0,0,0.06172839506172839,30.80246913580247,0)" xlink:href="#aZ"/><use transform="matrix(0.06172839506172839,0,0,0.06172839506172839,43.148148148148145,0)" xlink:href="#aQ"/><use transform="matrix(0.06172839506172839,0,0,0.06172839506172839,49.32098765432099,0)" xlink:href="#ba"/><use transform="matrix(0.06172839506172839,0,0,0.06172839506172839,60.4320987654321,0)" xlink:href="#aY"/><use transform="matrix(0.06172839506172839,0,0,0.06172839506172839,76.41975308641976,0)" xlink:href="#aT"/><use transform="matrix(0.06172839506172839,0,0,0.06172839506172839,81.2962962962963,0)" xlink:href="#aR"/></g><g id="M"><use transform="matrix(0.06172839506172839,0,0,0.06172839506172839,0,0)" xlink:href="#bq"/><use transform="matrix(0.06172839506172839,0,0,0.06172839506172839,12.345679012345679,0)" xlink:href="#br"/><use transform="matrix(0.06172839506172839,0,0,0.06172839506172839,24.691358024691358,0)" xlink:href="#bs"/><use transform="matrix(0.06172839506172839,0,0,0.06172839506172839,37.03703703703704,0)" xlink:href="#bt"/></g><g id="N"><use transform="matrix(0.06172839506172839,0,0,0.06172839506172839,0,0)" xlink:href="#bn"/><use transform="matrix(0.06172839506172839,0,0,0.06172839506172839,14.814814814814813,0)" xlink:href="#aN"/><use transform="matrix(0.06172839506172839,0,0,0.06172839506172839,27.160493827160494,0)" xlink:href="#aR"/><use transform="matrix(0.06172839506172839,0,0,0.06172839506172839,34.50617283950617,0)" xlink:href="#bp"/><use transform="matrix(0.06172839506172839,0,0,0.06172839506172839,45.61728395061728,0)" xlink:href="#aT"/><use transform="matrix(0.06172839506172839,0,0,0.06172839506172839,50.49382716049382,0)" xlink:href="#bf"/><use transform="matrix(0.06172839506172839,0,0,0.06172839506172839,61.60493827160494,0)" xlink:href="#aN"/></g><path fill="#333" d="M143 0L79-87 56-68V0H24v-261h32v163l83-92h37l-77 82L181 0h-38" id="bw"/><g id="O"><use transform="matrix(0.06172839506172839,0,0,0.06172839506172839,0,0)" xlink:href="#aX"/><use transform="matrix(0.06172839506172839,0,0,0.06172839506172839,15.987654320987653,0)" xlink:href="#aW"/><use transform="matrix(0.06172839506172839,0,0,0.06172839506172839,28.333333333333332,0)" xlink:href="#aR"/><use transform="matrix(0.06172839506172839,0,0,0.06172839506172839,35.67901234567901,0)" xlink:href="#bw"/><use transform="matrix(0.06172839506172839,0,0,0.06172839506172839,46.79012345679013,0)" xlink:href="#aN"/><use transform="matrix(0.06172839506172839,0,0,0.06172839506172839,59.135802469135804,0)" xlink:href="#aR"/></g><g id="P"><use transform="matrix(0.06172839506172839,0,0,0.06172839506172839,0,0)" xlink:href="#bw"/><use transform="matrix(0.06172839506172839,0,0,0.06172839506172839,11.11111111111111,0)" xlink:href="#aZ"/><use transform="matrix(0.06172839506172839,0,0,0.06172839506172839,23.45679012345679,0)" xlink:href="#aW"/></g><g id="Q"><use transform="matrix(0.06172839506172839,0,0,0.06172839506172839,0,0)" xlink:href="#bb"/><use transform="matrix(0.06172839506172839,0,0,0.06172839506172839,18.456790123456788,0)" xlink:href="#aW"/><use transform="matrix(0.06172839506172839,0,0,0.06172839506172839,30.80246913580247,0)" xlink:href="#bk"/><use transform="matrix(0.06172839506172839,0,0,0.06172839506172839,43.148148148148145,0)" xlink:href="#aP"/><use transform="matrix(0.06172839506172839,0,0,0.06172839506172839,55.49382716049382,0)" xlink:href="#aQ"/><use transform="matrix(0.06172839506172839,0,0,0.06172839506172839,61.666666666666664,0)" xlink:href="#be"/></g><g id="R"><use transform="matrix(0.06172839506172839,0,0,0.06172839506172839,0,0)" xlink:href="#bi"/><use transform="matrix(0.06172839506172839,0,0,0.06172839506172839,12.345679012345679,0)" xlink:href="#bg"/><use transform="matrix(0.06172839506172839,0,0,0.06172839506172839,24.691358024691358,0)" xlink:href="#bc"/><use transform="matrix(0.06172839506172839,0,0,0.06172839506172839,37.03703703703704,0)" xlink:href="#be"/></g><g id="S"><use transform="matrix(0.06172839506172839,0,0,0.06172839506172839,0,0)" xlink:href="#bi"/><use transform="matrix(0.06172839506172839,0,0,0.06172839506172839,12.345679012345679,0)" xlink:href="#aT"/><use transform="matrix(0.06172839506172839,0,0,0.06172839506172839,17.22222222222222,0)" xlink:href="#aR"/></g><g id="T"><use transform="matrix(0.06172839506172839,0,0,0.06172839506172839,0,0)" xlink:href="#aU"/><use transform="matrix(0.06172839506172839,0,0,0.06172839506172839,6.172839506172839,0)" xlink:href="#aR"/><use transform="matrix(0.06172839506172839,0,0,0.06172839506172839,13.518518518518519,0)" xlink:href="#aW"/><use transform="matrix(0.06172839506172839,0,0,0.06172839506172839,25.864197530864196,0)" xlink:href="#bb"/></g><g id="U"><use transform="matrix(0.06172839506172839,0,0,0.06172839506172839,0,0)" xlink:href="#bo"/><use transform="matrix(0.06172839506172839,0,0,0.06172839506172839,6.172839506172839,0)" xlink:href="#bc"/><use transform="matrix(0.06172839506172839,0,0,0.06172839506172839,18.51851851851852,0)" xlink:href="#aT"/><use transform="matrix(0.06172839506172839,0,0,0.06172839506172839,23.395061728395063,0)" xlink:href="#aQ"/></g><g id="V"><use transform="matrix(0.06172839506172839,0,0,0.06172839506172839,0,0)" xlink:href="#bp"/><use transform="matrix(0.06172839506172839,0,0,0.06172839506172839,11.11111111111111,0)" xlink:href="#aW"/><use transform="matrix(0.06172839506172839,0,0,0.06172839506172839,23.45679012345679,0)" xlink:href="#aV"/><use transform="matrix(0.06172839506172839,0,0,0.06172839506172839,28.333333333333336,0)" xlink:href="#bk"/><use transform="matrix(0.06172839506172839,0,0,0.06172839506172839,40.67901234567901,0)" xlink:href="#bb"/><use transform="matrix(0.06172839506172839,0,0,0.06172839506172839,59.1358024691358,0)" xlink:href="#aN"/></g><g id="W"><use transform="matrix(0.06172839506172839,0,0,0.06172839506172839,0,0)" xlink:href="#bf"/><use transform="matrix(0.06172839506172839,0,0,0.06172839506172839,11.11111111111111,0)" xlink:href="#aV"/><use transform="matrix(0.06172839506172839,0,0,0.06172839506172839,15.987654320987653,0)" xlink:href="#aW"/><use transform="matrix(0.06172839506172839,0,0,0.06172839506172839,28.333333333333332,0)" xlink:href="#aP"/><use transform="matrix(0.06172839506172839,0,0,0.06172839506172839,40.67901234567901,0)" xlink:href="#aN"/><use transform="matrix(0.06172839506172839,0,0,0.06172839506172839,53.02469135802469,0)" xlink:href="#be"/></g><g id="X"><use transform="matrix(0.06172839506172839,0,0,0.06172839506172839,0,0)" xlink:href="#bc"/><use transform="matrix(0.06172839506172839,0,0,0.06172839506172839,12.345679012345679,0)" xlink:href="#aT"/><use transform="matrix(0.06172839506172839,0,0,0.06172839506172839,17.22222222222222,0)" xlink:href="#aQ"/><use transform="matrix(0.06172839506172839,0,0,0.06172839506172839,23.39506172839506,0)" xlink:href="#bd"/><use transform="matrix(0.06172839506172839,0,0,0.06172839506172839,30.74074074074074,0)" xlink:href="#be"/><use transform="matrix(0.06172839506172839,0,0,0.06172839506172839,41.85185185185185,0)" xlink:href="#ba"/><use transform="matrix(0.06172839506172839,0,0,0.06172839506172839,52.96296296296296,0)" xlink:href="#aP"/><use transform="matrix(0.06172839506172839,0,0,0.06172839506172839,65.30864197530865,0)" xlink:href="#bf"/><use transform="matrix(0.06172839506172839,0,0,0.06172839506172839,76.41975308641976,0)" xlink:href="#bd"/><use transform="matrix(0.06172839506172839,0,0,0.06172839506172839,83.76543209876544,0)" xlink:href="#aR"/><use transform="matrix(0.06172839506172839,0,0,0.06172839506172839,91.11111111111113,0)" xlink:href="#aN"/><use transform="matrix(0.06172839506172839,0,0,0.06172839506172839,103.45679012345681,0)" xlink:href="#aV"/><use transform="matrix(0.06172839506172839,0,0,0.06172839506172839,108.33333333333336,0)" xlink:href="#bg"/><use transform="matrix(0.06172839506172839,0,0,0.06172839506172839,120.67901234567904,0)" xlink:href="#ba"/></g><g id="Y"><use transform="matrix(0.06172839506172839,0,0,0.06172839506172839,0,0)" xlink:href="#aQ"/><use transform="matrix(0.06172839506172839,0,0,0.06172839506172839,6.172839506172839,0)" xlink:href="#aW"/></g><g id="Z"><use transform="matrix(0.06172839506172839,0,0,0.06172839506172839,0,0)" xlink:href="#bo"/><use transform="matrix(0.06172839506172839,0,0,0.06172839506172839,6.172839506172839,0)" xlink:href="#bc"/><use transform="matrix(0.06172839506172839,0,0,0.06172839506172839,18.51851851851852,0)" xlink:href="#aT"/><use transform="matrix(0.06172839506172839,0,0,0.06172839506172839,23.395061728395063,0)" xlink:href="#aQ"/></g><path fill="#333" d="M212-179c-10-28-35-45-73-45-59 0-87 40-87 99 0 60 29 101 89 101 43 0 62-24 78-52l27 14C228-24 195 4 139 4 59 4 22-46 18-125c-6-104 99-153 187-111 19 9 31 26 39 46" id="bx"/><g id="aa"><use transform="matrix(0.06172839506172839,0,0,0.06172839506172839,0,0)" xlink:href="#aT"/><use transform="matrix(0.06172839506172839,0,0,0.06172839506172839,4.876543209876543,0)" xlink:href="#aP"/><use transform="matrix(0.06172839506172839,0,0,0.06172839506172839,17.22222222222222,0)" xlink:href="#aT"/><use transform="matrix(0.06172839506172839,0,0,0.06172839506172839,22.098765432098766,0)" xlink:href="#aQ"/><use transform="matrix(0.06172839506172839,0,0,0.06172839506172839,28.271604938271604,0)" xlink:href="#bx"/><use transform="matrix(0.06172839506172839,0,0,0.06172839506172839,44.25925925925926,0)" xlink:href="#aW"/><use transform="matrix(0.06172839506172839,0,0,0.06172839506172839,56.60493827160494,0)" xlink:href="#aP"/><use transform="matrix(0.06172839506172839,0,0,0.06172839506172839,68.95061728395062,0)" xlink:href="#aQ"/><use transform="matrix(0.06172839506172839,0,0,0.06172839506172839,75.12345679012346,0)" xlink:href="#bg"/><use transform="matrix(0.06172839506172839,0,0,0.06172839506172839,87.46913580246914,0)" xlink:href="#aT"/><use transform="matrix(0.06172839506172839,0,0,0.06172839506172839,92.34567901234568,0)" xlink:href="#aP"/><use transform="matrix(0.06172839506172839,0,0,0.06172839506172839,104.69135802469137,0)" xlink:href="#aN"/><use transform="matrix(0.06172839506172839,0,0,0.06172839506172839,117.03703703703705,0)" xlink:href="#aR"/></g><g id="ab"><use transform="matrix(0.06172839506172839,0,0,0.06172839506172839,0,0)" xlink:href="#be"/><use transform="matrix(0.06172839506172839,0,0,0.06172839506172839,11.11111111111111,0)" xlink:href="#bf"/><use transform="matrix(0.06172839506172839,0,0,0.06172839506172839,22.22222222222222,0)" xlink:href="#aM"/><use transform="matrix(0.06172839506172839,0,0,0.06172839506172839,34.5679012345679,0)" xlink:href="#aN"/><use transform="matrix(0.06172839506172839,0,0,0.06172839506172839,46.913580246913575,0)" xlink:href="#bi"/><use transform="matrix(0.06172839506172839,0,0,0.06172839506172839,59.25925925925925,0)" xlink:href="#bk"/><use transform="matrix(0.06172839506172839,0,0,0.06172839506172839,71.60493827160494,0)" xlink:href="#aV"/><use transform="matrix(0.06172839506172839,0,0,0.06172839506172839,76.48148148148148,0)" xlink:href="#aN"/><use transform="matrix(0.06172839506172839,0,0,0.06172839506172839,88.82716049382717,0)" xlink:href="#aR"/></g></defs></g></svg>
